<svg id="Layer_1" data-name="Layer 1" xmlns="http://www.w3.org/2000/svg" viewBox="0 0 524.38 299.7"><defs><style>.cls-1{fill:#fbb43b;stroke:#fbb43b;}.cls-1,.cls-2,.cls-3,.cls-4,.cls-5{stroke-miterlimit:10;}.cls-2,.cls-3{fill:none;stroke-width:5px;}.cls-2,.cls-4{stroke:#000;}.cls-3,.cls-5{stroke:#fff;}.cls-5{fill:#fff;}</style></defs><ellipse class="cls-1" cx="208.81" cy="154.99" rx="149.28" ry="144.2"/><ellipse class="cls-2" cx="224.61" cy="146.7" rx="149.28" ry="144.2"/><path class="cls-3" d="M218.09,410.93c2.43-31.44-4.22-42.66-11.32-46.79-13.92-8.11-31.69,9.83-45.25,1-14.06-9.11-2.3-33.11-17.49-46.28-14.06-12.19-30.63,2.76-48.34-9.26-18.92-12.83-9.87-36.58-28.8-45.25-10.77-4.93-26.91-3.3-38,.23a63.18,63.18,0,0,0-7.29,2.85" transform="translate(-20.58 -166.66)"/><path class="cls-4" d="M334.79,331.45l-1.9,12.39h-3.6l6.17-37.41h5.09L347,343.84h-3.73l-2-12.39Zm5.95-3.27c-1.41-8.69-2.38-15.13-2.72-18.5h-.15c-.13,2.84-1.52,11.35-2.59,18.5Z" transform="translate(-20.58 -166.66)"/><path class="cls-4" d="M350.66,325.12c0-4.55,0-7.25-.06-9.68H354c.05.8.13,2.4.13,4.4a6.12,6.12,0,0,1,5.92-4.77v4.4c-3.58,0-5.84,2.35-5.84,7.31v17.06h-3.56Z" transform="translate(-20.58 -166.66)"/><path class="cls-4" d="M362.19,315.44h3.31v-7H369v7h4.11v3.18H369v19.61c0,1.49.28,3,2.09,3A9.52,9.52,0,0,0,373,341v2.79a9.2,9.2,0,0,1-3,.4c-2.57,0-4.46-1.14-4.46-5.34V318.62h-3.31Z" transform="translate(-20.58 -166.66)"/><path class="cls-5" d="M396.32,339.14c0,2,0,3.92.12,4.7h-3.33a18.17,18.17,0,0,1-.28-2.36c-.9,2.19-2.7,2.81-4.64,2.81-4.06,0-5.67-3.57-5.67-8v-.5c0-6.29,3.81-8.66,8.86-8.66h1.37v-4.7c0-2.66-.48-4.38-2.83-4.38s-3,1.78-3,4.11V323h-3.52v-.79c0-3.93,1.55-7.23,6.62-7.23,4.83,0,6.28,3.11,6.28,7.21Zm-3.5-9.09h-1.49c-3.37,0-5.33,1.44-5.33,5.67v.49c0,2.66.8,4.85,3.13,4.85,2.78,0,3.69-2.27,3.69-6.62Z" transform="translate(-20.58 -166.66)"/><path class="cls-5" d="M401.73,324.06c0-5.68,0-7.18-.06-8.62h3.39a26.34,26.34,0,0,1,.15,2.91,5.06,5.06,0,0,1,5.2-3.35c3,0,5.54,1.69,5.54,6.88v22h-3.56V322.58c0-2.79-.93-4.3-3.11-4.3-2.47,0-4,1.21-4,7v18.61h-3.56Z" transform="translate(-20.58 -166.66)"/><path class="cls-5" d="M434.87,304.77v31.89c0,3.15,0,5.58.06,7.18h-3.39a28.09,28.09,0,0,1-.15-2.82,4.81,4.81,0,0,1-4.94,3.27c-4.7,0-5.94-3.71-5.94-9.15V323.37c0-5,2-8.37,6.36-8.37,2.55,0,3.86,1.1,4.44,2.16V304.77ZM424.1,323.59v11.6c0,3.86,1,5.81,3.33,5.81,3.13,0,3.88-3,3.88-7.1v-9.48c0-3.13-.31-6.14-3.75-6.14C425.12,318.28,424.1,320.33,424.1,323.59Z" transform="translate(-20.58 -166.66)"/><path class="cls-5" d="M448,306.43h6.5c8.11,0,8.92,5.21,8.92,10.91v14.88c0,5.74-.86,11.62-9.22,11.62H448Zm3.56,34.3h2.35c4.71,0,5.88-2.59,5.88-7.73V316.86c0-4.53-.82-7.29-5.83-7.29h-2.4Z" transform="translate(-20.58 -166.66)"/><path class="cls-5" d="M471,330.29v4.76c0,3,.57,6.15,3.53,6.15,2.8,0,3.35-2.24,3.35-5.12v-.25h3.5v.22c0,3.36-.8,8.24-6.86,8.24-5.62,0-7-3.75-7-9.52V323.89c0-4.41,1.57-8.89,7.11-8.89,5.33,0,6.84,4.05,6.84,8.9v6.39Zm7-3v-3.71c0-2.65-.38-5.54-3.42-5.54-2.89,0-3.55,2.44-3.55,5.58v3.67Z" transform="translate(-20.58 -166.66)"/><path class="cls-5" d="M488.26,335.51v1.23c0,3,1.24,4.46,3.32,4.46,2.31,0,3.21-1.46,3.21-4.24,0-3-.88-4.29-4.07-6.41-3.77-2.5-5.52-4.48-5.52-8.39s1.9-7.16,6.47-7.16c4.95,0,6.36,3.25,6.36,7.3v1.34h-3.48v-1.53c0-2.52-.71-4-2.93-4-2,0-2.84,1.39-2.84,3.74s.72,3.4,3.62,5.35c4,2.63,6,4.6,6,9.28,0,5.08-2.23,7.83-7,7.83-5.37,0-6.77-3.62-6.77-7.5v-1.28Z" transform="translate(-20.58 -166.66)"/><path class="cls-5" d="M502.41,315.44H506v28.4h-3.56Zm0-10.67H506v5.7h-3.56Z" transform="translate(-20.58 -166.66)"/><path class="cls-5" d="M524.88,343.49c0,5.63-.65,10.4-7.52,10.4-5.72,0-6.83-3.92-6.83-7v-.14h3.6v.18c0,1.56.58,3.89,3.42,3.89,3.07,0,3.77-2.27,3.77-6.49v-3.78c-.77,2-2.28,3-4.83,3-4.14,0-5.94-3-5.94-8.64V323.39c0-5.26,2.34-8.39,6.52-8.39,2.9,0,4.24,1.51,4.63,2.91a22.14,22.14,0,0,1,.21-2.47H525c-.06,1.53-.11,4.13-.11,7.57Zm-10.73-19.92v11.09c0,3.83,1,5.7,3.23,5.7,3.44,0,4-3.56,4-7.47v-8.4c0-3.47-.37-6.21-3.59-6.21C515.19,318.28,514.15,320.23,514.15,323.57Z" transform="translate(-20.58 -166.66)"/><path class="cls-5" d="M530.24,324.06c0-5.68,0-7.18-.06-8.62h3.39a24,24,0,0,1,.15,2.91,5.06,5.06,0,0,1,5.2-3.35c3,0,5.54,1.69,5.54,6.88v22H540.9V322.58c0-2.79-.93-4.3-3.11-4.3-2.47,0-4,1.21-4,7v18.61h-3.56Z" transform="translate(-20.58 -166.66)"/></svg>