<svg id="Layer_1" data-name="Layer 1" xmlns="http://www.w3.org/2000/svg" viewBox="0 0 456.71 299.7"><defs><style>.cls-1{fill:#fbb43b;stroke:#fbb43b;}.cls-1,.cls-2,.cls-3,.cls-4,.cls-5{stroke-miterlimit:10;}.cls-2,.cls-3{fill:none;stroke-width:5px;}.cls-2,.cls-4{stroke:#000;}.cls-3,.cls-5{stroke:#fff;}.cls-5{fill:#fff;}</style></defs><ellipse class="cls-1" cx="208.81" cy="154.99" rx="149.28" ry="144.2"/><ellipse class="cls-2" cx="224.61" cy="146.7" rx="149.28" ry="144.2"/><path class="cls-3" d="M218.09,410.93c2.43-31.44-4.22-42.66-11.32-46.79-13.92-8.11-31.69,9.83-45.25,1-14.06-9.11-2.3-33.11-17.49-46.28-14.06-12.19-30.63,2.76-48.34-9.26-18.92-12.83-9.87-36.58-28.8-45.25-10.77-4.93-26.91-3.3-38,.23a63.18,63.18,0,0,0-7.29,2.85" transform="translate(-20.58 -166.66)"/><path class="cls-4" d="M319.41,292.36l-1.89,12.4h-3.6l6.17-37.41h5.09l6.43,37.41h-3.73l-2-12.4Zm6-3.27c-1.41-8.68-2.38-15.12-2.72-18.5h-.15c-.13,2.85-1.52,11.36-2.59,18.5Z" transform="translate(-20.58 -166.66)"/><path class="cls-4" d="M335.29,286c0-4.55,0-7.25-.06-9.68h3.41c.05.79.13,2.4.13,4.4a6.11,6.11,0,0,1,5.92-4.77v4.4c-3.58,0-5.84,2.34-5.84,7.31v17.06h-3.56Z" transform="translate(-20.58 -166.66)"/><path class="cls-4" d="M346.82,276.36h3.31v-7h3.52v7h4.11v3.17h-4.11v19.62c0,1.49.28,3,2.09,3a9.34,9.34,0,0,0,1.83-.17v2.78a8.88,8.88,0,0,1-3,.4c-2.57,0-4.46-1.14-4.46-5.33V279.53h-3.31Z" transform="translate(-20.58 -166.66)"/><path class="cls-4" d="M328.65,367.26c0,2,0,3.92.12,4.7h-3.33a18.17,18.17,0,0,1-.28-2.36,4.53,4.53,0,0,1-4.64,2.81c-4.06,0-5.67-3.57-5.67-8v-.51c0-6.28,3.81-8.66,8.86-8.66h1.37v-4.7c0-2.65-.48-4.37-2.83-4.37s-3,1.77-3,4.11v.82h-3.52v-.78c0-3.94,1.56-7.24,6.63-7.24,4.83,0,6.28,3.12,6.28,7.21Zm-3.5-9.09h-1.49c-3.37,0-5.34,1.44-5.34,5.67v.48c0,2.67.8,4.86,3.14,4.86,2.78,0,3.69-2.28,3.69-6.63Z" transform="translate(-20.58 -166.66)"/><path class="cls-4" d="M334.06,352.18c0-5.68,0-7.19-.06-8.62h3.39a26.27,26.27,0,0,1,.15,2.9,5.07,5.07,0,0,1,5.19-3.35c3,0,5.55,1.7,5.55,6.88v22h-3.56V350.7c0-2.79-.94-4.3-3.12-4.3-2.46,0-4,1.21-4,6.94V372h-3.56Z" transform="translate(-20.58 -166.66)"/><path class="cls-4" d="M367.2,332.89v31.88c0,3.15,0,5.58.06,7.19h-3.39c-.08-.5-.15-2.06-.15-2.82a4.83,4.83,0,0,1-4.94,3.27c-4.7,0-5.94-3.72-5.94-9.16V351.49c0-5,2-8.38,6.35-8.38,2.56,0,3.86,1.1,4.45,2.16V332.89ZM356.43,351.7v11.61c0,3.85,1,5.81,3.33,5.81,3.13,0,3.88-3,3.88-7.1v-9.48c0-3.14-.32-6.14-3.75-6.14C357.44,346.4,356.43,348.45,356.43,351.7Z" transform="translate(-20.58 -166.66)"/><path class="cls-5" d="M380.29,334.55h6.5c8.11,0,8.92,5.2,8.92,10.91v14.87c0,5.75-.86,11.63-9.23,11.63h-6.19Zm3.56,34.29h2.35c4.71,0,5.88-2.58,5.88-7.72V345c0-4.53-.82-7.29-5.83-7.29h-2.4Z" transform="translate(-20.58 -166.66)"/><path class="cls-5" d="M403.32,358.41v4.76c0,3,.57,6.14,3.53,6.14,2.8,0,3.35-2.23,3.35-5.11v-.26h3.5v.22c0,3.37-.8,8.25-6.86,8.25-5.62,0-7-3.75-7-9.52V352c0-4.4,1.57-8.89,7.11-8.89,5.33,0,6.84,4.06,6.84,8.91v6.39Zm7-3v-3.71c0-2.65-.38-5.54-3.42-5.54-2.89,0-3.55,2.44-3.55,5.58v3.67Z" transform="translate(-20.58 -166.66)"/><path class="cls-5" d="M420.59,363.62v1.24c0,3,1.24,4.45,3.32,4.45,2.31,0,3.21-1.45,3.21-4.24,0-3-.88-4.28-4.07-6.4-3.77-2.5-5.52-4.49-5.52-8.4s1.9-7.16,6.47-7.16c4.95,0,6.36,3.26,6.36,7.31v1.33h-3.48v-1.52c0-2.52-.71-4-2.93-4-2,0-2.84,1.38-2.84,3.74s.72,3.39,3.62,5.34c4,2.64,6,4.6,6,9.29,0,5.08-2.23,7.83-7,7.83-5.37,0-6.77-3.63-6.77-7.5v-1.29Z" transform="translate(-20.58 -166.66)"/><path class="cls-5" d="M434.74,343.56h3.56V372h-3.56Zm0-10.67h3.56v5.69h-3.56Z" transform="translate(-20.58 -166.66)"/><path class="cls-5" d="M457.21,371.61c0,5.63-.65,10.39-7.52,10.39-5.72,0-6.83-3.91-6.83-7v-.15h3.6v.19c0,1.55.58,3.89,3.42,3.89,3.07,0,3.77-2.28,3.77-6.49v-3.79c-.77,2-2.28,3.05-4.83,3.05-4.14,0-5.94-3-5.94-8.64V351.51c0-5.27,2.34-8.4,6.52-8.4,2.89,0,4.24,1.51,4.63,2.92a21.93,21.93,0,0,1,.21-2.47h3.08c-.06,1.52-.11,4.13-.11,7.57Zm-10.74-19.92v11.08c0,3.83,1,5.7,3.24,5.7,3.44,0,4-3.55,4-7.46v-8.4c0-3.47-.36-6.21-3.58-6.21C447.52,346.4,446.47,348.35,446.47,351.69Z" transform="translate(-20.58 -166.66)"/><path class="cls-5" d="M462.57,352.18c0-5.68,0-7.19-.06-8.62h3.39a24,24,0,0,1,.15,2.9,5.07,5.07,0,0,1,5.2-3.35c3,0,5.54,1.7,5.54,6.88v22h-3.56V350.7c0-2.79-.93-4.3-3.11-4.3-2.47,0-4,1.21-4,6.94V372h-3.56Z" transform="translate(-20.58 -166.66)"/></svg>