<svg id="Layer_1" data-name="Layer 1" xmlns="http://www.w3.org/2000/svg" viewBox="0 0 479.41 411.59"><defs><style>.cls-1{fill:#fbb43b;}.cls-2{fill:#fff;}</style></defs><ellipse class="cls-1" cx="266.37" cy="205.8" rx="213.04" ry="205.8"/><path d="M348.23,492a1.5,1.5,0,0,0,0-3,1.5,1.5,0,0,0,0,3Z" transform="translate(-134.04 -194.12)"/><path d="M347.9,490.06A106.76,106.76,0,0,1,317.55,514c-10.92,5.64-23.36,9.13-35.71,7.63a41.17,41.17,0,0,1-17.26-6c-5-3.23-9.9-8.46-10.28-14.72s3.87-11.09,9-14c5.81-3.35,12.71-4.52,19.34-4.74,15.62-.52,30.75,4.63,45.62,8.71a218,218,0,0,0,44.28,7.47c30.13,1.86,60.48-2.43,89.4-10.83,14.59-4.23,28.66-9.78,42.75-15.41,13.86-5.54,27.91-10.95,42.64-13.7a108.8,108.8,0,0,1,11.08-1.5c1.91-.15,1.92-3.16,0-3-31.38,2.59-59.44,18.73-89,28.19-29.79,9.54-61.14,14.78-92.47,13.48a210.49,210.49,0,0,1-46.26-7.15C315.42,484.33,300,479,284,479.15c-7,.08-14.34,1.17-20.69,4.35-5.2,2.6-10,6.88-11.52,12.7-3.48,13.38,10.39,23.21,21.43,26.62,25.28,7.81,52-6.57,69.94-23.56,2.39-2.26,4.68-4.63,6.87-7.08,1.29-1.44-.83-3.57-2.12-2.12Z" transform="translate(-134.04 -194.12)"/><path d="M545.78,469.87a202.46,202.46,0,0,0-44.94-28.56A164.25,164.25,0,0,0,450.19,427a131,131,0,0,0-52,4.76c-17.06,5.15-33,13.57-47.78,23.4-15,10-29.05,21.38-42.85,33l-5.16,4.34c-1.48,1.25.65,3.36,2.12,2.12,13.57-11.45,27.23-22.85,41.81-33,14.33-10,29.63-18.88,46.15-24.76a128.89,128.89,0,0,1,51-7.35,155.13,155.13,0,0,1,50.11,12,194.37,194.37,0,0,1,45.08,26.56q2.54,2,5,4.05c1.47,1.23,3.61-.88,2.12-2.12Z" transform="translate(-134.04 -194.12)"/><path d="M522.13,481.89c-11.06.69-24,2.29-30.09,12.88a16.52,16.52,0,0,0-.63,15.27c2.28,5.15,6.47,9.85,10.8,13.38,4,3.25,8.78,5.59,14,5.37a21.75,21.75,0,0,0,12.66-5.06,22.92,22.92,0,0,0,7.73-11.62,20.36,20.36,0,0,0-1.19-13.64,26.33,26.33,0,0,0-26.36-15c-1.89.23-1.92,3.23,0,3a23.52,23.52,0,0,1,21.8,9.94,17.54,17.54,0,0,1-1.42,22.6,20.16,20.16,0,0,1-10.24,6.3A15.9,15.9,0,0,1,507,523.17a37,37,0,0,1-10.72-10.65c-2.8-4.11-4.44-8.92-2.75-13.8s5.91-8.47,10.46-10.49c5.69-2.52,12.05-3,18.17-3.34,1.92-.11,1.93-3.12,0-3Z" transform="translate(-134.04 -194.12)"/><path d="M361,518.61c-9,2-17.94,8.36-19.73,17.9a19,19,0,0,0,2,12.92,15.91,15.91,0,0,0,11,7.55c9.39,1.73,19.57-2.7,26.1-9.35,6.13-6.23,9.73-16.25,4.24-24.07-5-7.18-15.62-10.35-23.36-5.67a1.5,1.5,0,0,0,1.51,2.59c5.72-3.45,13.35-1.65,17.88,3,5.64,5.76,4.09,14.28-.63,20.1-5.17,6.4-13.56,10.85-21.87,10.81a14.35,14.35,0,0,1-10.8-4.39,14.8,14.8,0,0,1-3.41-10.44c.4-9.65,9.11-16.09,17.87-18,1.89-.41,1.09-3.3-.79-2.89Z" transform="translate(-134.04 -194.12)"/><path class="cls-2" d="M320.64,475.42,338.45,510c.88,1.72,3.47.21,2.59-1.51L323.23,473.9c-.89-1.71-3.48-.2-2.59,1.52Z" transform="translate(-134.04 -194.12)"/><path class="cls-2" d="M344.05,431.82a237.22,237.22,0,0,0,18.71,30.53c1.12,1.55,3.72.06,2.59-1.51a237.22,237.22,0,0,1-18.71-30.53c-.88-1.72-3.47-.2-2.59,1.51Z" transform="translate(-134.04 -194.12)"/><path class="cls-2" d="M488,469.66,503.82,490a1.5,1.5,0,0,0,2.12,0,1.53,1.53,0,0,0,0-2.12l-15.87-20.35a1.52,1.52,0,0,0-2.12,0,1.56,1.56,0,0,0,0,2.13Z" transform="translate(-134.04 -194.12)"/><path class="cls-2" d="M509.24,421.3a75.09,75.09,0,0,0,16,32.74c1.24,1.48,3.35-.65,2.12-2.12a72,72,0,0,1-15.23-31.42c-.39-1.89-3.29-1.09-2.89.8Z" transform="translate(-134.04 -194.12)"/><path class="cls-2" d="M328.48,465.54l9.95-17.78,5.11-9.11q1.18-2.13,2.38-4.26a12.53,12.53,0,0,1,2.42-3.34c2.13-1.86,5.27-2,7.94-2.21l10.15-.94q10.15-.91,20.31-1.77,40.62-3.4,81.34-5.68Q491,419.16,514,418.24L512.72,416l-22.17,37.76L488,458a16.92,16.92,0,0,1-2.67,3.82,6.46,6.46,0,0,1-3.77,1.59c-1.91.27-3.86.36-5.78.53l-21.35,1.87-87.13,7.66L343,475.64l-12.16,1.07-3,.26-1.49.13c-.13,0-1.18,0-.86.2-.84-.6-.18-2.17.49-2.55a1.5,1.5,0,0,0-1.51-2.6,4.82,4.82,0,0,0-1.67,6.52,3.81,3.81,0,0,0,1.08,1.18,3.38,3.38,0,0,0,2.47.25l6-.52,22.84-2,46.17-4.06,46.17-4.06,22.84-2c3.74-.33,7.51-.57,11.24-1a10,10,0,0,0,7.78-4.84c2.27-3.42,4.21-7.1,6.29-10.64l6.55-11.15,13.1-22.31a1.51,1.51,0,0,0-1.3-2.26q-41.73,1.68-83.4,4.55Q410,421.2,389.46,422.9q-10.41.87-20.8,1.8c-3.47.31-6.93.63-10.4,1-2.88.26-6,.31-8.73,1.32-3.09,1.15-4.83,3.47-6.4,6.26q-2.92,5.19-5.83,10.4L325.89,464a1.5,1.5,0,0,0,2.59,1.52Z" transform="translate(-134.04 -194.12)"/><path class="cls-2" d="M401.86,500.69a1.5,1.5,0,0,0,0-3,1.5,1.5,0,0,0,0,3Z" transform="translate(-134.04 -194.12)"/><path class="cls-2" d="M399,499.24a1.5,1.5,0,0,0,0-3,1.5,1.5,0,0,0,0,3Z" transform="translate(-134.04 -194.12)"/><path class="cls-2" d="M398.69,497.82c-2.12,5.85,2.28,12.29,7.94,14,6.62,2,14.18-1.59,18.35-6.75,2.43-3,3.9-6.74,3-10.62-.46-1.88-3.35-1.08-2.9.8.83,3.4-1.05,6.69-3.38,9a17.28,17.28,0,0,1-9.33,4.93,9.82,9.82,0,0,1-8.72-2.65,7.64,7.64,0,0,1-2-7.92c.66-1.81-2.24-2.6-2.89-.79Z" transform="translate(-134.04 -194.12)"/><path class="cls-2" d="M542.43,463a1.5,1.5,0,0,0,0-3,1.5,1.5,0,0,0,0,3Z" transform="translate(-134.04 -194.12)"/><path class="cls-2" d="M540.78,461.51c.57,5.88,4.73,10.46,10.1,12.63a15.72,15.72,0,0,0,16.2-2.37c4.42-3.77,6.53-10,6.07-15.69a18.56,18.56,0,0,0-9.44-14.75,23.22,23.22,0,0,0-20.61-1c-1.77.77-.24,3.36,1.51,2.59,9.54-4.14,22.79.3,25.22,11.1a16.59,16.59,0,0,1-3.14,13.9A12.33,12.33,0,0,1,554.13,472c-5-1.19-9.83-5.11-10.35-10.52-.19-1.91-3.19-1.93-3,0Z" transform="translate(-134.04 -194.12)"/><path class="cls-2" d="M443.84,414.42A87,87,0,0,0,456.33,356c-2.41-16.55-11.21-34.21-27.21-41.26-19-8.39-39.94.6-54.92,12.85-8.09,6.62-15.18,14.34-22.46,21.81S336.89,364.12,329,371a394.55,394.55,0,0,1-50.32,37.46q-13.27,8.32-27.17,15.58c-9.61,5-19.45,10.12-30,12.94a55.89,55.89,0,0,1-30.43-.37A72.76,72.76,0,0,1,165,422.34a79,79,0,0,1-27.06-46.9c-2.86-17.2,1.21-35.19,13.26-48.1,10.82-11.61,26.93-19,42.95-17.23a41,41,0,0,1,11.25,2.95c1.78.74,2.56-2.16.8-2.89-15-6.25-32.31-3.05-45.73,5.57a59,59,0,0,0-17.29,16.94,56,56,0,0,0-8.62,23.91c-2.33,18.19,3.43,37,13.79,51.87,11,15.78,27.78,28.27,46.77,32.23a59.46,59.46,0,0,0,30.32-1.7c10.3-3.26,20-8.35,29.57-13.38a396.74,396.74,0,0,0,53.27-33.88A405.09,405.09,0,0,0,355.39,350c14.34-14.81,29.47-31.24,50.8-34.85,9.48-1.61,19.26,0,27.25,5.5,7.25,5,12.47,12.6,15.78,20.66,7.52,18.32,6.2,39.84-1,58a83.26,83.26,0,0,1-6.95,13.59c-1,1.64,1.56,3.15,2.59,1.51Z" transform="translate(-134.04 -194.12)"/></svg>