<svg id="Layer_1" data-name="Layer 1" xmlns="http://www.w3.org/2000/svg" viewBox="0 0 426.09 411.59"><defs><style>.cls-1{fill:#fbb43b;}.cls-2{fill:#fff;}</style></defs><ellipse class="cls-1" cx="213.04" cy="205.8" rx="213.04" ry="205.8"/><path d="M235.57,546.88a544.35,544.35,0,0,1,9.75-59.52c3.34-15.08,7.16-30.63,15.67-43.75a48.52,48.52,0,0,1,15-15.16c7.54-4.63,16.28-6.35,24.91-7.71,8.16-1.28,16.42-2.32,24.18-5.32,6.88-2.67,13.72-6.92,17.54-13.44,6.21-10.61,3.5-27.3-10-30.31-7.44-1.65-14.94.84-22.41.33a13.76,13.76,0,0,1-12.72-9.82c-3.4-10.47.09-22.16-4-32.47a15,15,0,0,0-3.91-5.84c-2.46-2.18-5.37-2.87-8.38-4-9.74-3.51.38-14.77,3.51-19.58a82.08,82.08,0,0,0,10.53-23.86c2.35-9,2.47-18.27,3.87-27.43,1.25-8.16,4-15.79,9.59-22a53,53,0,0,1,17.73-12.37,96.11,96.11,0,0,1,21.83-6.58,135.42,135.42,0,0,1,28.84-2.44c17.27.48,34.42,5.07,48.66,15.07,13.43,9.44,23,23.27,26.18,39.47,3.28,16.82-.08,34.68-7.41,50s-18.78,28.66-31.41,40.09c-6.37,5.76-13.09,11.12-20,16.22-6.25,4.63-13.22,9.68-16.23,17.15a13.79,13.79,0,0,0,5.14,16.91c5.33,3.46,12.33,3.72,18.48,3.81,7.55.11,14.83.12,22.2,2a73.27,73.27,0,0,1,20.91,9.23c13.28,8.43,24.07,20.53,31.75,34.2,9,16,14.08,33.75,17.5,51.64,1.67,8.76,2.94,17.59,4.07,26.44.24,1.89,3.25,1.91,3,0-4.43-34.73-11.35-71.81-35.65-98.63-10.46-11.53-23.79-20.87-38.83-25.24-7.33-2.13-14.67-2.64-22.26-2.65-6.21,0-13.43.2-19-3a10.77,10.77,0,0,1-5.29-7.33c-.73-3.82,1-7.53,3.19-10.56,4.95-6.82,12.62-11.33,19.18-16.42,13.64-10.6,26.47-22.48,36.51-36.63s16.71-30.39,18.12-47.68c1.34-16.54-2.66-33.32-12.83-46.6-9.59-12.53-23.47-21.42-38.44-26.11-18.36-5.75-38.11-5.42-56.87-1.92-14.48,2.71-29.76,7.89-40.22,18.75a41.51,41.51,0,0,0-10.7,20.78c-1.83,8.91-1.74,18.08-3.58,27a79.25,79.25,0,0,1-9.9,25.16c-2.23,3.65-5.05,6.93-7.07,10.69-1.66,3.07-3.07,6.89-1.72,10.34,1.5,3.8,5.3,4.71,8.8,5.88a11.28,11.28,0,0,1,6,4.5c2.83,4.4,3,10.13,3.19,15.19.36,10.23-.54,24.71,10.55,29.88,6.85,3.2,14.62,1.15,21.82.83,3.6-.16,7.38,0,10.62,1.79a13.13,13.13,0,0,1,5.8,6.5,20.7,20.7,0,0,1-1.61,18.39c-4.11,6.7-11.72,10.62-19,12.91-16.34,5.15-34.69,3.49-49.13,14-12.1,8.79-19,22.74-23.5,36.63A245.06,245.06,0,0,0,242,488.5q-3.19,14.69-5.58,29.52-2.31,14.37-3.86,28.86c-.21,1.92,2.8,1.91,3,0Z" transform="translate(-136.64 -177.45)"/><path class="cls-2" d="M354,584.24a321.57,321.57,0,0,1-4.55-59.35c.2-8.67,1.57-17.17,6.66-24.39,4.44-6.29,10.72-11.08,16.71-15.81s11.65-9.26,15.87-15.49c4-5.83,6.91-13.06,6.42-20.23a19.11,19.11,0,0,0-9.42-15.35c-5-2.91-11-3.24-16.71-2.81-7.07.53-14,2.14-21.07,2.82-6.74.64-13.78.44-19.62-3.38l-.36,2.75c10-1.4,17.18-9.22,20.91-18.16,4.5-10.79,3.77-22.17.92-33.3-3.26-12.79-8.87-25-10.56-38.21a79.14,79.14,0,0,1,2.8-32.77c6.34-20.89,21.78-38.89,43.19-44.91,19.63-5.53,42.68-1.37,57.34,13.38,7.22,7.26,11.82,16.66,17.05,25.35,4.84,8,10.49,16.4,19,20.85a30.08,30.08,0,0,0,6.51,2.46v-2.9c-8.21,3.16-9.17,13.11-7.17,20.58,2.61,9.75,12,18.3,9.67,29.08-1.81,8.32-9.8,13.28-16.66,17.24-3.86,2.23-7.81,4.3-11.58,6.67a56,56,0,0,0-20.63,22.81C436.36,426,434,431.72,436.37,437c2,4.58,6.57,7.65,10.72,10.13a76.16,76.16,0,0,0,13.66,6.23c19,6.67,40.62,7.64,57.33,19.82,15.3,11.16,22.83,31.92,19,50.37a48,48,0,0,1-1.94,6.81c-.66,1.81,2.24,2.59,2.89.79,6.4-17.54,2.24-38-9.63-52.3-13.1-15.73-33.79-19.52-52.61-24.24-9.7-2.43-19.46-5.26-28-10.57-4.25-2.63-9.45-6.23-9.43-11.8,0-2.93,1.2-5.81,2.41-8.43a53,53,0,0,1,14.33-18.72,76.41,76.41,0,0,1,11.63-7.59c7.3-4.1,15.42-8.11,20.47-15.06A19.41,19.41,0,0,0,490.94,371c0-5.35-2.35-10.32-4.79-15-2.27-4.33-4.87-8.54-5.77-13.42-.71-3.79-.6-8.18,1.47-11.56a8.07,8.07,0,0,1,4-3.38c1.29-.5,1.55-2.51,0-2.9-9.67-2.41-16.17-10-21.36-18.07-5.51-8.54-9.94-17.79-16.31-25.76C435.09,264.57,413,258.11,392.64,261a61.53,61.53,0,0,0-28.59,11.81,70.09,70.09,0,0,0-20.41,25.25,81.72,81.72,0,0,0-8,32.15c-.52,12.39,2.38,24.08,6.2,35.77,3.89,11.93,8.67,24.61,7,37.37-1.27,9.62-6,20-15,24.67a20.91,20.91,0,0,1-6.72,2.07c-1.38.2-1.32,2.12-.36,2.75,10.57,6.91,24.13,3.41,35.69,1.71,5.68-.83,11.78-1.59,17.42-.09a16.24,16.24,0,0,1,11.87,12.06c1.53,6.9-1.26,14.23-4.9,20-4.05,6.41-9.92,11.09-15.79,15.74s-11.86,9.27-16.45,15.24c-5.16,6.69-7.37,14.56-8,22.91-.76,10.63-.13,21.49.62,32.11q1.15,16.34,3.84,32.51c.31,1.9,3.2,1.09,2.89-.8Z" transform="translate(-136.64 -177.45)"/></svg>