<svg id="Layer_1" data-name="Layer 1" xmlns="http://www.w3.org/2000/svg" viewBox="0 0 372.63 362.19"><defs><style>.cls-1{fill:#fbb43b;stroke:#fbb43b;}.cls-1,.cls-2,.cls-3,.cls-4,.cls-5{stroke-miterlimit:10;}.cls-2,.cls-3{fill:none;}.cls-2,.cls-4{stroke:#000;}.cls-2{stroke-width:3px;}.cls-3,.cls-5{stroke:#fff;}.cls-3{stroke-width:5px;}.cls-5{fill:#fff;}</style></defs><rect class="cls-1" x="74.32" y="213.68" width="284.06" height="273.91" transform="translate(-128.63 -87.86) rotate(-15.66)"/><rect class="cls-2" x="85.91" y="194.39" width="284.06" height="273.91" transform="translate(-122.99 -85.44) rotate(-15.66)"/><path class="cls-3" d="M169,262.12c-31.45,2.33-41.55,10.6-44.56,18.23-5.92,15,14.49,29.85,7.83,44.59-6.9,15.26-32.39,7.25-43.13,24.25-9.93,15.74,7.34,29.86-1.87,49.18C77.44,419,52.6,413.64,46.88,433.66c-3.26,11.39.79,27.1,5.94,37.49a61.26,61.26,0,0,0,3.92,6.78" transform="translate(-42 -159.28)"/><path class="cls-4" d="M278.23,316.46h7.54c6.35,0,9.31,3.24,9.31,10.1v2.66c0,6.38-1.8,11.2-9.62,11.2h-3.1v19.46h-4.13Zm4.13,20.44h2.76c5.1,0,5.81-3.15,5.81-7.73v-2.38c0-3.6-.81-6.78-5.45-6.78h-3.12Z" transform="translate(-42 -159.28)"/><path class="cls-4" d="M299.57,338.15c0-5.27,0-8.41-.06-11.23h3.95c.06.92.15,2.79.15,5.11,1.2-4,4-5.46,6.87-5.54v5.1c-4.15.05-6.78,2.73-6.78,8.49v19.8h-4.13Z" transform="translate(-42 -159.28)"/><path class="cls-4" d="M329.72,336.09v14.06c0,7.17-3.34,10.25-8.42,10.25s-8.25-3-8.25-10V336c0-6.16,3.18-9.62,8.45-9.62C326.94,326.4,329.72,330,329.72,336.09Zm-12.5-.08V350.5c0,3.81,1.31,6.2,4.17,6.2,2.65,0,4.16-1.8,4.16-6.25V336c0-3.41-1.17-5.88-4.14-5.88S317.22,332.25,317.22,336Z" transform="translate(-42 -159.28)"/><path class="cls-4" d="M339.34,326.92v36.23c0,4.68-.71,8.29-5.79,8.29a16,16,0,0,1-2.05-.12v-3.83a10,10,0,0,0,1.33.07c1.69,0,2.38-.4,2.38-3.75V326.92Zm-4-5.78v-6.6h4.13v6.6Z" transform="translate(-42 -159.28)"/><path class="cls-4" d="M348.77,344.16v5.52c0,3.46.67,7.13,4.1,7.13,3.25,0,3.88-2.59,3.88-5.93v-.3h4.07v.25c0,3.91-.93,9.57-8,9.57-6.51,0-8.15-4.35-8.15-11V336.72c0-5.11,1.83-10.32,8.26-10.32,6.19,0,7.94,4.71,7.94,10.34v7.42Zm8.12-3.43v-4.3c0-3.08-.45-6.44-4-6.44-3.35,0-4.12,2.83-4.12,6.48v4.26Z" transform="translate(-42 -159.28)"/><path class="cls-5" d="M380.78,349.6v.46c0,5.62-1.43,10.34-8,10.34-6.16,0-7.77-4.3-7.77-10.94V336.3c0-5.62,2.09-9.9,8.05-9.9,6.42,0,7.68,4.73,7.68,9.2V337h-4.13v-1.07c0-3.1-.51-5.9-3.64-5.9-2.7,0-3.79,2-3.79,6.19v14.11c0,3.15.6,6.52,3.71,6.52,2.73,0,3.72-1.77,3.72-6.29v-.92Z" transform="translate(-42 -159.28)"/><path class="cls-5" d="M383.22,326.92h3.84v-8.14h4.09v8.14h4.77v3.69h-4.77v22.76c0,1.73.32,3.45,2.42,3.45a10.89,10.89,0,0,0,2.14-.2v3.24a10.71,10.71,0,0,1-3.47.46c-3,0-5.18-1.32-5.18-6.19V330.61h-3.84Z" transform="translate(-42 -159.28)"/><path class="cls-5" d="M402.35,350.21v1.43c0,3.48,1.44,5.17,3.86,5.17,2.67,0,3.73-1.69,3.73-4.92,0-3.44-1-5-4.73-7.43-4.38-2.91-6.41-5.21-6.41-9.75s2.2-8.31,7.51-8.31c5.75,0,7.39,3.78,7.39,8.48v1.55h-4v-1.77c0-2.92-.83-4.67-3.41-4.67-2.33,0-3.3,1.61-3.3,4.35s.84,3.94,4.21,6.2c4.62,3.06,7,5.34,7,10.78,0,5.89-2.58,9.08-8.12,9.08-6.22,0-7.85-4.2-7.85-8.7v-1.49Z" transform="translate(-42 -159.28)"/></svg>