<svg id="Layer_1" data-name="Layer 1" xmlns="http://www.w3.org/2000/svg" viewBox="0 0 439.8 411.59"><defs><style>.cls-1{fill:#fbb43b;}.cls-2{fill:#fff;}</style></defs><ellipse class="cls-1" cx="213.04" cy="205.8" rx="213.04" ry="205.8"/><path d="M369,217.44a120.48,120.48,0,0,0-11.33,36.44,134.28,134.28,0,0,0,.07,38.3,138,138,0,0,0,10.74,36.89,130.41,130.41,0,0,0,20.66,32.35,136.86,136.86,0,0,0,29.35,25.11,150.24,150.24,0,0,0,35.07,16.37,156.27,156.27,0,0,0,38.22,7.1,149.46,149.46,0,0,0,38.74-2.71,122.62,122.62,0,0,0,36.38-13.46,86.74,86.74,0,0,0,28.28-25.23,70.22,70.22,0,0,0,4.81-8c.89-1.71-1.7-3.23-2.59-1.51a77,77,0,0,1-24.55,27.42,111.92,111.92,0,0,1-34.47,15.8,141.66,141.66,0,0,1-37.49,4.95,152.25,152.25,0,0,1-37.59-4.7,149.11,149.11,0,0,1-35.17-13.82,137,137,0,0,1-30.38-22.55,126.85,126.85,0,0,1-22.45-30A134.53,134.53,0,0,1,362.33,301a132.57,132.57,0,0,1-2.74-37.43,120.33,120.33,0,0,1,8.2-36.24q1.71-4.26,3.76-8.36c.86-1.73-1.73-3.25-2.59-1.52Z" transform="translate(-187.36 -194.12)"/><path d="M394.87,236.77a105.43,105.43,0,0,0-7.67,54.9,112.65,112.65,0,0,0,20,51.78,105.24,105.24,0,0,0,43.67,35,118.56,118.56,0,0,0,55.84,9.43,112.65,112.65,0,0,0,27.85-5.63c10.52-3.58,20.32-8.9,29.67-14.86q3.7-2.37,7.33-4.84c1.59-1.07.09-3.67-1.51-2.59-9.42,6.37-19.15,12.48-29.67,16.89a108.37,108.37,0,0,1-26.85,7.31,115.66,115.66,0,0,1-54.77-5.78,103.93,103.93,0,0,1-44.87-31.12,108.33,108.33,0,0,1-22.66-49.12A104.48,104.48,0,0,1,395,244.54c.74-2.12,1.56-4.2,2.46-6.26.76-1.75-1.82-3.28-2.59-1.51Z" transform="translate(-187.36 -194.12)"/><path d="M422,265.86c-6.77,22-1.6,46.92,12.4,65.05,16,20.77,43.24,30.18,68.91,28.65a91.69,91.69,0,0,0,42.09-13,1.5,1.5,0,0,0-1.52-2.59,88.88,88.88,0,0,1-73.94,8.18,68.08,68.08,0,0,1-45.73-49,67.72,67.72,0,0,1,.68-36.44c.57-1.85-2.33-2.64-2.89-.8Z" transform="translate(-187.36 -194.12)"/><path d="M262.87,431.07a244,244,0,0,0,5.95,55.86q1.77,7.85,4.05,15.56c.55,1.84,3.45,1.06,2.9-.8a240.44,240.44,0,0,1-9.54-54.79q-.44-7.9-.36-15.83a1.5,1.5,0,0,0-3,0Z" transform="translate(-187.36 -194.12)"/><path d="M322.62,445.23a332.69,332.69,0,0,1-56.24-18.35c-1.75-.76-3.28,1.83-1.51,2.59a336.28,336.28,0,0,0,56.95,18.66c1.88.43,2.68-2.46.8-2.9Z" transform="translate(-187.36 -194.12)"/><path d="M364.46,451l55.23-16.88c1.84-.56,1.05-3.46-.8-2.89L363.66,448.1c-1.84.56-1.05,3.46.8,2.89Z" transform="translate(-187.36 -194.12)"/><path d="M377.93,465.67a384.44,384.44,0,0,0,47.68,26.38c1.74.81,3.27-1.77,1.52-2.59a383.84,383.84,0,0,1-47.69-26.38c-1.62-1.05-3.13,1.55-1.51,2.59Z" transform="translate(-187.36 -194.12)"/><path d="M363.25,478a408.82,408.82,0,0,1,18.18,46q2.16,6.63,4.09,13.33a1.51,1.51,0,0,0,2.9-.8,414.28,414.28,0,0,0-16.8-47.11q-2.78-6.53-5.78-13c-.82-1.75-3.41-.23-2.59,1.51Z" transform="translate(-187.36 -194.12)"/><path d="M292.45,538.08l26.28,16.49,6.52,4.09a50.18,50.18,0,0,0,5.82,3.54c2.8,1.28,6.9,1.78,8.13-1.79.63-1.83-2.27-2.62-2.89-.8-.35,1-2,.56-2.76.34a19.11,19.11,0,0,1-4.69-2.56l-11.56-7.26L294,535.49c-1.64-1-3.15,1.56-1.52,2.59Z" transform="translate(-187.36 -194.12)"/><path class="cls-2" d="M352.57,255.83l37.71,2.59c1.92.14,1.92-2.86,0-3l-37.71-2.59c-1.92-.13-1.91,2.87,0,3Z" transform="translate(-187.36 -194.12)"/><path class="cls-2" d="M391.07,303.5,430,285.61c1.75-.81.23-3.4-1.51-2.59l-38.9,17.89c-1.75.81-.23,3.39,1.51,2.59Z" transform="translate(-187.36 -194.12)"/><path class="cls-2" d="M503.37,352.16l11.32,23.32c.84,1.74,3.43.22,2.59-1.51L506,350.65c-.84-1.74-3.43-.22-2.59,1.51Z" transform="translate(-187.36 -194.12)"/><path class="cls-2" d="M445.54,374.58a175.84,175.84,0,0,0-1,36.26c.15,1.91,3.15,1.93,3,0a175.84,175.84,0,0,1,1-36.26,1.52,1.52,0,0,0-1.5-1.5,1.54,1.54,0,0,0-1.5,1.5Z" transform="translate(-187.36 -194.12)"/><path class="cls-2" d="M249.68,409.38a1.5,1.5,0,0,0,0-3,1.5,1.5,0,0,0,0,3Z" transform="translate(-187.36 -194.12)"/><path class="cls-2" d="M249.7,407.3a9,9,0,0,0-7.48,5.21,12.33,12.33,0,0,0,0,10.16c2.46,6,8.41,12.19,15.4,11.89a13.66,13.66,0,0,0,12.61-11.86c.72-6.4-3.69-12.57-9.52-14.87-7-2.77-15.2.71-19.24,6.77-1.08,1.62,1.52,3.12,2.59,1.52A13.91,13.91,0,0,1,257.37,410a12.15,12.15,0,0,1,9.85,9.76c.85,4.94-2.55,9.9-7.27,11.37-5.25,1.64-10.15-2-13-6.12-1.83-2.65-3.37-6.06-2.68-9.35.55-2.62,2.62-5.19,5.44-5.37,1.91-.12,1.93-3.12,0-3Z" transform="translate(-187.36 -194.12)"/><path class="cls-2" d="M348.23,451.41a1.5,1.5,0,0,0,0-3,1.5,1.5,0,0,0,0,3Z" transform="translate(-187.36 -194.12)"/><path class="cls-2" d="M347.48,447.06a26.53,26.53,0,0,0-9.37,4.13c-2.48,1.75-5.75,4.22-5.82,7.55,0,1.77.91,3.4,1.77,4.88a37.76,37.76,0,0,0,2.57,3.92,25.08,25.08,0,0,0,6.78,6.49c5.06,3.09,11.46,2.77,15.66-1.62a13.67,13.67,0,0,0,2.57-15.47c-3-6-10.14-9.07-16.64-8.15-1.9.27-1.09,3.16.8,2.89a13.34,13.34,0,0,1,12.2,5.07,10.41,10.41,0,0,1-.07,12.36,9.2,9.2,0,0,1-11.62,3.08c-4.55-2.11-7.78-6.6-10.11-10.88-.88-1.61-1.29-2.93,0-4.45a17.22,17.22,0,0,1,3.3-3,24.23,24.23,0,0,1,8.82-3.95c1.88-.43,1.09-3.32-.8-2.89Z" transform="translate(-187.36 -194.12)"/><path class="cls-2" d="M270,526.78a1.5,1.5,0,0,0,0-3,1.5,1.5,0,0,0,0,3Z" transform="translate(-187.36 -194.12)"/><path class="cls-2" d="M269.29,523.46c-4.92,2-6,8-3.78,12.44,2.81,5.59,10.27,6.18,15.51,4.14,5.61-2.17,11.72-8.29,9-14.82-2.49-6.07-10.28-8.49-16.24-6.82-6.93,1.94-11.06,9.09-10.06,16.06a1.5,1.5,0,0,0,1.84,1,1.53,1.53,0,0,0,1.05-1.84,11.27,11.27,0,0,1,19.2-9.48c7.72,8.08-9.95,18.66-16.68,11.74-2.34-2.41-2.73-8.11.93-9.57,1.77-.71,1-3.61-.8-2.89Z" transform="translate(-187.36 -194.12)"/><path class="cls-2" d="M429.39,429.67a1.5,1.5,0,0,0,0-3,1.5,1.5,0,0,0,0,3Z" transform="translate(-187.36 -194.12)"/><path class="cls-2" d="M427.78,428.15a10.87,10.87,0,0,0,2.42,7.48,10.59,10.59,0,0,0,2.91,2.55,4.17,4.17,0,0,0,2.18.81,5.52,5.52,0,0,0,2-.58,6.93,6.93,0,0,0,3.65-5.91,5.9,5.9,0,0,0-4-5.65,6.57,6.57,0,0,0-7.22,1.66,1.54,1.54,0,0,0,0,2.12,1.51,1.51,0,0,0,2.12,0,5.44,5.44,0,0,1,.47-.49s.3-.23.11-.09l.12-.08c.17-.11.37-.18.53-.29s-.33.11,0,0l.43-.13a5.41,5.41,0,0,1,.55-.12c-.42.08.21,0,.33,0s.42,0,.63,0c.38,0-.33-.07.05,0l.33.07c.2,0,.4.11.6.17s.32.14,0,0l.31.15c.16.08.32.18.48.28s.32.28.05,0l.29.27.19.2c.26.25-.16-.26,0,0s.21.32.3.49.15.42,0,.07c0,.11.07.22.11.33a1.89,1.89,0,0,1,.05.23c0,.07,0,.15,0,.22,0-.21,0-.23,0-.05s0,.38,0,.57l0,.35c0-.39,0,0,0,.06s-.08.38-.14.57-.07.22-.11.33c-.13.36.14-.27,0,.08a5.24,5.24,0,0,1-.34.61l-.13.2c-.2.32.21-.22-.05.07a5.25,5.25,0,0,1-.4.42l-.25.24c-.13.1-.12.09,0,0l-.19.13-.51.28c-.32.18.3-.08-.06,0l-.22.07c-.11,0-.23.05-.34.09-.37.1.28-.08.42.05a4.26,4.26,0,0,0-.74-.37c-.19-.11-.39-.23-.58-.36l-.34-.23c-.36-.26.21.18-.13-.11a10.79,10.79,0,0,1-1.08-1.06l-.26-.31c.19.23-.15-.21-.18-.25-.15-.23-.3-.46-.44-.7s-.25-.49-.38-.74.1.27-.06-.14l-.15-.39c-.1-.3-.19-.61-.26-.92l-.06-.27c0-.06-.11-.62-.06-.28a8.83,8.83,0,0,1,0-1.78,1.5,1.5,0,0,0-1.5-1.5,1.54,1.54,0,0,0-1.5,1.5Z" transform="translate(-187.36 -194.12)"/><path class="cls-2" d="M438.09,497.79a1.5,1.5,0,0,0,0-3,1.5,1.5,0,0,0,0,3Z" transform="translate(-187.36 -194.12)"/><path class="cls-2" d="M438.16,495.56a6.53,6.53,0,0,0-5.45,4.57,5.91,5.91,0,0,0,2.05,6.72,6.83,6.83,0,0,0,6.63.68,5.77,5.77,0,0,0,3.48-5.84,6.64,6.64,0,0,0-4.81-6,1.5,1.5,0,0,0-.79,2.9c.2,0,.4.12.6.18s-.14,0-.14-.06l.13.06.33.18.24.16.12.08s-.23-.2-.12-.09.33.3.48.47.23.25.22.25-.17-.25-.09-.11.06.08.08.12a5,5,0,0,1,.35.58l.13.26s-.14-.35,0-.09c0,.05,0,.1.05.14a6.13,6.13,0,0,1,.18.61c0,.11,0,.22.07.33s0,.12,0,.14,0-.32,0-.16,0,.45,0,.67,0,.22,0,.34c0,.28.06-.3,0,0s-.09.43-.16.64a.69.69,0,0,0,0,.13c0,.16,0-.13.06-.13a1.91,1.91,0,0,0-.13.25c0,.1-.11.2-.17.3l-.08.12c-.13.2.05-.08.06-.07a4.17,4.17,0,0,1-.42.45l-.11.09c-.16.15,0-.08.08-.06a2.78,2.78,0,0,0-.27.19,4.4,4.4,0,0,0-.54.29s.3-.11.14-.06l-.13.05-.36.12a5.05,5.05,0,0,1-.56.12c-.26.06.32,0,0,0l-.33,0c-.21,0-.42,0-.63,0s-.38,0-.13,0-.13,0-.23-.05a5.72,5.72,0,0,1-.59-.17c-.05,0-.23-.11-.27-.1s.27.13.14.06l-.17-.09a4.07,4.07,0,0,1-.53-.31l-.12-.08c-.13-.08.12.08.12.09s-.25-.22-.28-.25l-.2-.2-.12-.15s.17.25.09.12-.24-.38-.35-.58c0,0-.07-.13-.06-.14s.1.3,0,.13-.06-.18-.09-.27-.06-.22-.08-.33l0-.15c-.05-.18,0,.31,0,.11s0-.42,0-.63a2.64,2.64,0,0,0,0-.29c0-.19.08,0,0,.11s0-.15,0-.2a5.71,5.71,0,0,1,.19-.71,1.42,1.42,0,0,1,.11-.33s-.13.28-.05.13.07-.15.11-.22a4.48,4.48,0,0,1,.35-.6.91.91,0,0,1,.11-.16c.13-.2-.06,0-.06.07s.2-.23.23-.27.48-.53.53-.5-.31.22-.07.06L437,499l.29-.17.13-.07.09,0c.11-.06.11-.06,0,0h0l.19-.06.37-.11c.11,0,.54-.07.09,0a1.54,1.54,0,0,0,1.5-1.5c0-.74-.66-1.6-1.5-1.5Z" transform="translate(-187.36 -194.12)"/><path class="cls-2" d="M393.16,545.62a1.5,1.5,0,0,0,0-3,1.5,1.5,0,0,0,0,3Z" transform="translate(-187.36 -194.12)"/><path class="cls-2" d="M393.69,545l.14-.07c.18-.1-.26.07-.06,0l.31-.1c.12,0,.24-.06.36-.09s-.28,0,.07,0a5.15,5.15,0,0,1,.68,0s.2,0,.21,0-.31-.06-.13,0l.36.07c.25.06.48.14.72.22s-.21-.11,0,0l.39.2c.2.11.38.26.59.37s-.08-.06-.09-.07l.12.11.32.29a5.68,5.68,0,0,1,.47.51c-.16-.19-.07-.09,0,0s.15.24.22.36.11.23.17.33-.06-.12-.05-.11a.67.67,0,0,1,.06.15c.07.23.12.47.18.71s0-.14,0-.13a1.28,1.28,0,0,1,0,.21c0,.11,0,.21,0,.32s0,.15,0,.22,0,.18,0,0,0-.08,0,0,0,.13,0,.2a3.37,3.37,0,0,1-.1.34s0,.1,0,.15,0,0,0-.08c0,.16-.25.5-.33.63s-.12.24-.17.25.19-.23.08-.1l-.13.15a6.14,6.14,0,0,1-.51.51s-.3.24-.13.11l-.18.13-.63.36c-.06,0-.42.18-.2.1l-.16.05a5.6,5.6,0,0,1-.7.2c-.07,0-.29.1-.35.06s.32,0,.14,0h-.15a4.21,4.21,0,0,1-.71,0l-.2,0s.31.06.15,0l-.35-.07-.29-.09-.15,0c-.17,0,.32.16,0,0s-.38-.23-.57-.34.11.09.1.09-.09-.08-.12-.1l-.28-.26c-.07-.07-.13-.16-.2-.22s.16.24.05.07l-.08-.12a5.58,5.58,0,0,1-.35-.58.84.84,0,0,0-.06-.14c-.08-.14.07.13.06.14a2.09,2.09,0,0,1-.12-.33,5.06,5.06,0,0,1-.17-.67l0-.14c-.06-.33,0,.24,0,.05s0-.23,0-.35a5.35,5.35,0,0,1,0-.8s0-.1,0-.15-.07.29,0,.1.05-.26.08-.39.14-.47.22-.71c0-.08.1-.11,0,0s0,0,.05-.09.1-.2.16-.3.14-.22.21-.33c.19-.29-.17.18.06-.08.06-.06.47-.54.52-.51s-.25.17-.1.08.1-.08.16-.11a3.64,3.64,0,0,1,.39-.23,1.51,1.51,0,0,0,.53-2.05,1.53,1.53,0,0,0-2.05-.54c-4.73,2.5-4.21,10.71,1.19,12a7.11,7.11,0,0,0,7-2.36,6.06,6.06,0,0,0,1.46-3.74,6.14,6.14,0,0,0-1.42-3.91,6.8,6.8,0,0,0-8.21-2,1.52,1.52,0,0,0-.54,2,1.54,1.54,0,0,0,2.06.54Z" transform="translate(-187.36 -194.12)"/><path class="cls-2" d="M348.23,570.25a1.5,1.5,0,0,0,0-3,1.5,1.5,0,0,0,0,3Z" transform="translate(-187.36 -194.12)"/><path class="cls-2" d="M348.13,568.42a7.19,7.19,0,0,0-2.77,7.26,6.5,6.5,0,0,0,5.18,5.44,7.68,7.68,0,0,0,7.48-3.44,6.38,6.38,0,0,0-.86-7.89,7.32,7.32,0,0,0-8.65-1.6,1.5,1.5,0,0,0,1.52,2.59l.31-.17c.24-.11-.22.07.13,0s.49-.12.73-.18c-.25.06-.1,0,.06,0H352c.14,0,.42.07.12,0,.25.05.49.09.74.16l.33.11c.12.05.4.19.14.05.22.12.45.23.67.36l.3.19c.1.07.34.28.12.08.19.17.39.33.57.52s.15.17.23.26l.11.13c-.07-.09-.11-.17,0,0s.27.42.39.64c0,0,.17.37.09.19s.07.19.09.25l.09.34c0,.07,0,.15,0,.23s0,.22,0,0,0,.15,0,.21,0,.28,0,.42-.06.33,0,.08c0,.13,0,.27-.08.4a3.38,3.38,0,0,1-.11.34c0,.12-.18.39,0,.13-.13.23-.23.46-.37.67,0,.05-.23.33-.12.19s-.14.16-.19.22a7,7,0,0,1-.55.54c-.05,0-.32.25-.18.15s-.18.12-.24.16c-.22.14-.45.27-.68.39l-.21.09L353,578a6.33,6.33,0,0,1-.75.19l-.17,0s.27,0,.1,0l-.41,0h-.41c-.06,0-.41-.06-.21,0l-.21-.05a3,3,0,0,1-.4-.11l-.17-.06c-.2-.05.21.12,0,0l-.31-.17-.29-.17-.13-.1c.08.06.17.16,0,0a6,6,0,0,1-.51-.5s-.24-.31-.13-.15-.1-.15-.13-.2c-.13-.21-.22-.43-.34-.63s0,.09,0,.1a.94.94,0,0,1-.06-.15c-.05-.12-.09-.25-.13-.37-.08-.27-.12-.54-.19-.82s0,.12,0,.13a1.79,1.79,0,0,0,0-.23c0-.15,0-.3,0-.45a6.78,6.78,0,0,1,0-.78c0-.26-.05.25,0-.1l.09-.43c0-.13.07-.25.12-.37s.16-.42.08-.23,0,0,0,0l.12-.24.2-.33c0-.06.25-.36.13-.21s.13-.13.17-.18.21-.21.32-.31l.13-.1c.15-.15-.29.2,0,0a1.5,1.5,0,1,0-1.52-2.59Z" transform="translate(-187.36 -194.12)"/><path class="cls-2" d="M504.43,536.92c-7.48-7.31-5.95-19.65-.51-27.69,6.61-9.76,18.27-14.78,28.7-19.31,10.8-4.7,22.14-9.67,29.57-19.22,7-8.93,9.61-20.3,9.86-31.45.26-11.48-2.47-22.52-4-33.82-1.39-10.49-1.79-22.62,5.55-31.16,11.82-13.75,34.31-11,45.4-25.68,7.82-10.35,3.91-23.64.9-35-2.34-8.82-4.26-20.09,1.57-28.05a13.64,13.64,0,0,1,4.91-4.1c1.71-.89.2-3.48-1.52-2.6-9,4.66-10.86,15.81-9.94,25,.58,5.8,2.38,11.33,3.78,17,1.54,6.19,2.86,12.87,1.18,19.17-2.5,9.35-11,14-19.44,17.15s-17.73,5.56-25,11.27c-19.41,15.14-8,42.65-6.58,62.74.78,11.26-.3,23.2-6,33.17-6.11,10.71-17,16.46-27.88,21.28S512.37,495,504.23,504c-6.87,7.67-10.34,19.29-6,29.09a18.85,18.85,0,0,0,4.12,5.91c1.38,1.35,3.51-.77,2.12-2.12Z" transform="translate(-187.36 -194.12)"/></svg>